<svg xmlns="http://www.w3.org/2000/svg" width="700" height="500"><rect width="700" height="700" fill="#ffffff"></rect><g class="axis" transform="translate(50,470)" fill="none" font-size="10" font-family="sans-serif" text-anchor="middle"><path class="domain" stroke="currentColor" d="M0.5,6V0.5H630.5V6"></path><g class="tick" opacity="1" transform="translate(0.5,0)"><line stroke="currentColor" y2="6"></line><text fill="currentColor" y="9" dy="0.71em">9th Dec</text></g><g class="tick" opacity="1" transform="translate(90.5,0)"><line stroke="currentColor" y2="6"></line><text fill="currentColor" y="9" dy="0.71em">10th Dec</text></g><g class="tick" opacity="1" transform="translate(180.5,0)"><line stroke="currentColor" y2="6"></line><text fill="currentColor" y="9" dy="0.71em">11th Dec</text></g><g class="tick" opacity="1" transform="translate(270.5,0)"><line stroke="currentColor" y2="6"></line><text fill="currentColor" y="9" dy="0.71em">12th Dec</text></g><g class="tick" opacity="1" transform="translate(360.5,0)"><line stroke="currentColor" y2="6"></line><text fill="currentColor" y="9" dy="0.71em">13th Dec</text></g><g class="tick" opacity="1" transform="translate(450.5,0)"><line stroke="currentColor" y2="6"></line><text fill="currentColor" y="9" dy="0.71em">14th Dec</text></g><g class="tick" opacity="1" transform="translate(540.5,0)"><line stroke="currentColor" y2="6"></line><text fill="currentColor" y="9" dy="0.71em">15th Dec</text></g><g class="tick" opacity="1" transform="translate(630.5,0)"><line stroke="currentColor" y2="6"></line><text fill="currentColor" y="9" dy="0.71em">16th Dec</text></g></g><g class="axis" transform="translate(50,20)" fill="none" font-size="10" font-family="sans-serif" text-anchor="end"><path class="domain" stroke="currentColor" d="M-6,450.5H0.5V75.5H-6"></path><g class="tick" opacity="1" transform="translate(0,450.5)"><line stroke="currentColor" x2="-6"></line><text fill="currentColor" x="-9" dy="0.32em">0.0</text></g><g class="tick" opacity="1" transform="translate(0,413)"><line stroke="currentColor" x2="-6"></line><text fill="currentColor" x="-9" dy="0.32em">0.2</text></g><g class="tick" opacity="1" transform="translate(0,375.5)"><line stroke="currentColor" x2="-6"></line><text fill="currentColor" x="-9" dy="0.32em">0.4</text></g><g class="tick" opacity="1" transform="translate(0,338)"><line stroke="currentColor" x2="-6"></line><text fill="currentColor" x="-9" dy="0.32em">0.6</text></g><g class="tick" opacity="1" transform="translate(0,300.5)"><line stroke="currentColor" x2="-6"></line><text fill="currentColor" x="-9" dy="0.32em">0.8</text></g><g class="tick" opacity="1" transform="translate(0,263)"><line stroke="currentColor" x2="-6"></line><text fill="currentColor" x="-9" dy="0.32em">1.0</text></g><g class="tick" opacity="1" transform="translate(0,225.5)"><line stroke="currentColor" x2="-6"></line><text fill="currentColor" x="-9" dy="0.32em">1.2</text></g><g class="tick" opacity="1" transform="translate(0,188.00000000000003)"><line stroke="currentColor" x2="-6"></line><text fill="currentColor" x="-9" dy="0.32em">1.4</text></g><g class="tick" opacity="1" transform="translate(0,150.5)"><line stroke="currentColor" x2="-6"></line><text fill="currentColor" x="-9" dy="0.32em">1.6</text></g><g class="tick" opacity="1" transform="translate(0,113)"><line stroke="currentColor" x2="-6"></line><text fill="currentColor" x="-9" dy="0.32em">1.8</text></g><g class="tick" opacity="1" transform="translate(0,75.5)"><line stroke="currentColor" x2="-6"></line><text fill="currentColor" x="-9" dy="0.32em">2.0</text></g></g><text text-anchor="middle" transform="translate(20, 262.5)rotate(-90)">Tide Height(m)</text><g class="grid" transform="translate(50, 470)" fill="none" font-size="10" font-family="sans-serif" text-anchor="middle"><path class="domain" stroke="currentColor" d="M0.5,-375V0.5H630.5V-375"></path><g class="tick" opacity="1" transform="translate(0.5,0)"><line stroke="#C0C0C0" y2="-375" stroke-opacity="0.7" shape-rendering="crispEdges"></line><text fill="currentColor" y="3" dy="0.71em"></text></g><g class="tick" opacity="1" transform="translate(90.5,0)"><line stroke="#C0C0C0" y2="-375" stroke-opacity="0.7" shape-rendering="crispEdges"></line><text fill="currentColor" y="3" dy="0.71em"></text></g><g class="tick" opacity="1" transform="translate(180.5,0)"><line stroke="#C0C0C0" y2="-375" stroke-opacity="0.7" shape-rendering="crispEdges"></line><text fill="currentColor" y="3" dy="0.71em"></text></g><g class="tick" opacity="1" transform="translate(270.5,0)"><line stroke="#C0C0C0" y2="-375" stroke-opacity="0.7" shape-rendering="crispEdges"></line><text fill="currentColor" y="3" dy="0.71em"></text></g><g class="tick" opacity="1" transform="translate(360.5,0)"><line stroke="#C0C0C0" y2="-375" stroke-opacity="0.7" shape-rendering="crispEdges"></line><text fill="currentColor" y="3" dy="0.71em"></text></g><g class="tick" opacity="1" transform="translate(450.5,0)"><line stroke="#C0C0C0" y2="-375" stroke-opacity="0.7" shape-rendering="crispEdges"></line><text fill="currentColor" y="3" dy="0.71em"></text></g><g class="tick" opacity="1" transform="translate(540.5,0)"><line stroke="#C0C0C0" y2="-375" stroke-opacity="0.7" shape-rendering="crispEdges"></line><text fill="currentColor" y="3" dy="0.71em"></text></g><g class="tick" opacity="1" transform="translate(630.5,0)"><line stroke="#C0C0C0" y2="-375" stroke-opacity="0.7" shape-rendering="crispEdges"></line><text fill="currentColor" y="3" dy="0.71em"></text></g></g><g class="grid" transform="translate(50,20)" fill="none" font-size="10" font-family="sans-serif" text-anchor="end"><path class="domain" stroke="currentColor" d="M630,450.5H0.5V75.5H630"></path><g class="tick" opacity="1" transform="translate(0,450.5)"><line stroke="#C0C0C0" x2="630" stroke-opacity="0.7" shape-rendering="crispEdges"></line><text fill="currentColor" x="-3" dy="0.32em"></text></g><g class="tick" opacity="1" transform="translate(0,413)"><line stroke="#C0C0C0" x2="630" stroke-opacity="0.7" shape-rendering="crispEdges"></line><text fill="currentColor" x="-3" dy="0.32em"></text></g><g class="tick" opacity="1" transform="translate(0,375.5)"><line stroke="#C0C0C0" x2="630" stroke-opacity="0.7" shape-rendering="crispEdges"></line><text fill="currentColor" x="-3" dy="0.32em"></text></g><g class="tick" opacity="1" transform="translate(0,338)"><line stroke="#C0C0C0" x2="630" stroke-opacity="0.7" shape-rendering="crispEdges"></line><text fill="currentColor" x="-3" dy="0.32em"></text></g><g class="tick" opacity="1" transform="translate(0,300.5)"><line stroke="#C0C0C0" x2="630" stroke-opacity="0.7" shape-rendering="crispEdges"></line><text fill="currentColor" x="-3" dy="0.32em"></text></g><g class="tick" opacity="1" transform="translate(0,263)"><line stroke="#C0C0C0" x2="630" stroke-opacity="0.7" shape-rendering="crispEdges"></line><text fill="currentColor" x="-3" dy="0.32em"></text></g><g class="tick" opacity="1" transform="translate(0,225.5)"><line stroke="#C0C0C0" x2="630" stroke-opacity="0.7" shape-rendering="crispEdges"></line><text fill="currentColor" x="-3" dy="0.32em"></text></g><g class="tick" opacity="1" transform="translate(0,188.00000000000003)"><line stroke="#C0C0C0" x2="630" stroke-opacity="0.7" shape-rendering="crispEdges"></line><text fill="currentColor" x="-3" dy="0.32em"></text></g><g class="tick" opacity="1" transform="translate(0,150.5)"><line stroke="#C0C0C0" x2="630" stroke-opacity="0.7" shape-rendering="crispEdges"></line><text fill="currentColor" x="-3" dy="0.32em"></text></g><g class="tick" opacity="1" transform="translate(0,113)"><line stroke="#C0C0C0" x2="630" stroke-opacity="0.7" shape-rendering="crispEdges"></line><text fill="currentColor" x="-3" dy="0.32em"></text></g><g class="tick" opacity="1" transform="translate(0,75.5)"><line stroke="#C0C0C0" x2="630" stroke-opacity="0.7" shape-rendering="crispEdges"></line><text fill="currentColor" x="-3" dy="0.32em"></text></g></g><text x="365" y="20" dy="0.32em" fill="#000" font-weight="bold" text-anchor="middle">(-28.948°,155°) December 09 2023</text><text x="365" y="40" dy="0.32em" fill="#000" text-anchor="middle" style="font-size: 0.7em">Tide heights are given in metres from the lowest astronomical tide level (this is not a survey or chart datum).</text><text x="365" y="60" dy="0.32em" fill="#000" text-anchor="middle">LAT = 0.922m below MSL</text><g class="moon" transform="translate(50, 20)" stroke="black" stroke-width="0.5px"><g><circle cx="313.2572916666667" cy="62.5" r="8" fill="black"></circle></g></g><g class="quarters" transform="translate(50, 20)" stroke="black" stroke-width="0.5px"><g><g Class="arc"></g><g Class="arc"></g></g></g><path class="line line-chart" d="M0,371.25L0.625,376.875L1.25,380.625L1.875,384.375L2.5,388.125L3.125,390L3.75,391.875L4.375,391.875L5,393.75L5.625,391.875L6.25,391.875L6.875,390L7.5,386.25L8.125,384.375L8.75,378.75L9.375,375L10,369.375L10.625,363.75L11.25,358.125L11.875,350.625L12.5,343.12500000000006L13.125,335.625L13.75,326.24999999999994L14.375,318.75L15,309.375L15.625,300L16.25,290.625L16.875,281.25L17.5,271.875L18.125,262.5L18.75,253.125L19.375,243.74999999999997L20,234.37500000000003L20.625,225L21.25,217.5L21.875,208.125L22.5,200.62499999999997L23.125,193.12499999999997L23.75,187.50000000000003L24.375,180L25,174.375L25.625,170.625L26.25,165L26.875,161.25L27.5,159.375L28.125,155.625L28.75,155.625L29.375,153.75L30,153.75L30.625,153.75L31.25,155.625L31.875,157.5L32.5,161.25L33.125,165L33.75,168.75L34.375,172.5L35,178.125L35.625,185.62500000000003L36.25,191.25000000000003L36.875,198.74999999999997L37.5,204.375L38.125,213.75L38.75,221.25L39.375,228.75L40,238.12500000000003L40.62500000000001,245.62499999999997L41.25,255L41.875,262.5L42.5,271.875L43.12500000000001,279.375L43.75,288.75L44.375,296.25000000000006L45,303.75L45.62500000000001,311.25L46.25,318.75L46.875,324.375L47.5,330L48.12500000000001,335.625L48.75,341.25L49.375,345L50,348.75L50.62500000000001,352.5L51.25,354.375L51.875,356.25L52.5,358.125L53.12500000000001,358.125L53.75,358.125L54.375,358.125L55,356.25L55.625,354.375L56.25,350.625L56.875,348.75L57.5,343.12500000000006L58.125,339.37500000000006L58.75,333.75L59.375,330L60,324.375L60.625,316.875L61.25,311.25L61.875,303.75L62.5,298.125L63.125,290.625L63.75,283.125L64.375,275.625L65,270L65.625,262.5L66.25,256.875L66.875,249.375L67.5,243.74999999999997L68.125,238.12500000000003L68.75,232.50000000000003L69.375,226.875L70,221.25L70.625,217.5L71.25,213.75L71.875,211.875L72.5,208.125L73.125,208.125L73.75,206.25L74.375,206.25L75,206.25L75.625,206.25L76.25,208.125L76.875,210L77.5,213.75L78.125,217.5L78.75,221.25L79.375,226.875L80,230.62500000000003L80.625,238.12500000000003L81.25000000000001,243.74999999999997L81.875,251.25L82.5,256.875L83.125,264.375L83.75,273.75L84.375,281.25L85,288.75L85.625,298.125L86.25000000000001,305.625L86.875,315L87.5,322.49999999999994L88.125,331.875L88.75,339.37500000000006L89.375,346.875L90,354.375L90.62499999999999,361.875L91.25000000000001,369.375L91.875,375L92.5,380.625L93.125,386.25L93.75,390L94.375,393.75L95,397.5L95.62499999999999,399.375L96.25000000000001,401.25L96.875,401.25L97.5,401.25L98.125,401.25L98.75,399.375L99.375,397.5L100,393.75L100.62499999999999,390L101.25000000000001,386.25L101.875,380.625L102.5,375L103.125,367.5L103.75,360L104.375,352.5L105,343.12500000000006L105.62499999999999,335.625L106.25000000000001,326.24999999999994L106.875,315L107.5,305.625L108.125,294.375L108.75,285L109.375,273.75L110,262.5L110.62499999999999,253.125L111.25,241.87499999999997L111.875,230.62500000000003L112.5,221.25L113.125,211.875L113.75,200.62499999999997L114.375,191.25000000000003L115,183.75000000000003L115.62499999999999,174.375L116.25,166.875L116.875,161.25L117.5,153.75L118.125,148.12499999999997L118.75,142.50000000000003L119.375,138.75L120,135L120.62500000000001,133.125L121.25,131.25L121.875,131.25L122.5,131.25L123.125,131.25L123.75,133.125L124.375,135L125,138.75L125.62500000000001,142.50000000000003L126.25,148.12499999999997L126.875,153.75L127.5,159.375L128.125,166.875L128.75,174.375L129.375,181.875L130,191.25000000000003L130.625,198.74999999999997L131.25,208.125L131.875,217.5L132.5,228.75L133.125,238.12500000000003L133.75,247.49999999999997L134.375,258.75L135,268.125L135.625,277.5L136.25,286.875L136.875,296.25000000000006L137.5,305.625L138.125,315L138.75,322.49999999999994L139.375,330L140,337.5L140.625,345L141.25,350.625L141.875,356.25L142.5,361.875L143.125,365.625L143.75,369.375L144.375,371.25L145,373.125L145.625,373.125L146.25,375L146.875,373.125L147.5,373.125L148.125,371.25L148.75,367.5L149.375,365.625L150,360L150.625,356.25L151.25,350.625L151.875,345L152.5,339.37500000000006L153.125,331.875L153.75,326.24999999999994L154.375,318.75L155,311.25L155.625,303.75L156.25,296.25000000000006L156.875,288.75L157.5,281.25L158.125,273.75L158.75,266.25L159.375,258.75L160,251.25L160.625,243.74999999999997L161.25,238.12500000000003L161.87499999999997,232.50000000000003L162.50000000000003,226.875L163.12500000000003,221.25L163.75,217.5L164.375,213.75L165,211.875L165.625,208.125L166.25,208.125L166.875,206.25L167.5,206.25L168.125,206.25L168.75,208.125L169.375,210L170,213.75L170.625,215.625L171.25,221.25L171.87499999999997,225L172.50000000000003,230.62500000000003L173.12500000000003,236.25000000000003L173.75,243.74999999999997L174.375,251.25L175,258.75L175.625,266.25L176.25,273.75L176.875,283.125L177.5,290.625L178.125,300L178.75,309.375L179.375,318.75L180,326.24999999999994L180.625,335.625L181.24999999999997,343.12500000000006L181.87499999999997,352.5L182.50000000000003,360L183.125,367.5L183.75,375L184.375,380.625L185,388.125L185.625,393.75L186.25,397.5L186.875,401.25L187.5,405L188.125,406.875L188.75,408.75L189.375,410.625L190,410.625L190.625,408.75L191.24999999999997,406.875L191.87499999999997,405L192.50000000000003,401.25L193.125,397.5L193.75,391.875L194.375,386.25L195,378.75L195.625,371.25L196.25,363.75L196.875,354.375L197.5,345L198.125,335.625L198.75,324.375L199.375,315L200,303.75L200.625,292.50000000000006L201.24999999999997,279.375L201.87500000000003,268.125L202.50000000000003,256.875L203.125,245.62499999999997L203.75,232.50000000000003L204.375,221.25L205,210L205.625,198.74999999999997L206.25,187.50000000000003L206.875,178.125L207.5,168.75L208.125,159.375L208.75,150L209.375,142.50000000000003L210,136.875L210.625,129.375L211.24999999999997,123.75L211.87500000000003,120L212.50000000000003,116.25L213.125,112.5L213.75,110.62499999999999L214.375,110.62499999999999L215,110.62499999999999L215.625,110.62499999999999L216.25,112.5L216.875,116.25L217.5,120L218.125,123.75L218.75,129.375L219.375,135L220,142.50000000000003L220.62499999999997,150L221.24999999999997,157.5L221.87500000000003,166.875L222.5,176.25L223.125,185.62500000000003L223.75,196.87499999999997L224.375,208.125L225,217.5L225.625,228.75L226.25,239.99999999999997L226.875,251.25L227.5,262.5L228.125,273.75L228.75,285L229.375,296.25000000000006L230,305.625L230.62499999999997,316.875L231.24999999999997,326.24999999999994L231.87500000000003,333.75L232.5,343.12500000000006L233.125,350.625L233.75,358.125L234.375,363.75L235,369.375L235.625,375L236.25,378.75L236.875,382.5L237.5,384.375L238.125,386.25L238.75,388.125L239.375,388.125L240,386.25L240.62499999999997,384.375L241.25000000000003,382.5L241.87500000000003,380.625L242.5,375L243.125,371.25L243.75,365.625L244.375,360L245,354.375L245.625,346.875L246.25,339.37500000000006L246.875,331.875L247.5,324.375L248.125,316.875L248.75,307.5L249.375,300L250,292.50000000000006L250.62499999999997,283.125L251.25000000000003,275.625L251.87500000000003,268.125L252.5,260.625L253.125,253.125L253.75,245.62499999999997L254.375,238.12500000000003L255,232.50000000000003L255.625,226.875L256.25,223.125L256.875,217.5L257.5,215.625L258.125,211.875L258.75,210L259.375,208.125L260,208.125L260.625,208.125L261.25,208.125L261.875,210L262.5,213.75L263.125,215.625L263.75,219.375L264.375,225L265,230.62500000000003L265.625,236.25000000000003L266.25,243.74999999999997L266.875,249.375L267.5,256.875L268.125,266.25L268.75,273.75L269.375,283.125L270,290.625L270.625,300L271.25,309.375L271.875,318.75L272.5,328.125L273.125,337.5L273.75,346.875L274.375,354.375L275,363.75L275.625,371.25L276.25,378.75L276.875,384.375L277.5,391.875L278.125,397.5L278.75,403.125L279.375,406.875L280,410.625L280.625,412.5L281.25,414.375L281.875,414.375L282.5,414.375L283.125,414.375L283.75,412.5L284.375,410.625L285,406.875L285.625,401.25L286.25,395.625L286.875,390L287.5,382.5L288.125,375L288.75,365.625L289.375,358.125L290,346.875L290.625,337.5L291.25,326.24999999999994L291.875,315L292.5,301.875L293.125,290.625L293.75,277.5L294.375,266.25L295,253.125L295.625,239.99999999999997L296.25,226.875L296.875,215.625L297.5,202.5L298.125,191.25000000000003L298.75,180L299.375,168.75L300,157.5L300.625,148.12499999999997L301.25,138.75L301.875,131.25L302.5,123.75L303.125,116.25L303.75,110.62499999999999L304.375,104.99999999999997L305,101.24999999999997L305.625,97.50000000000003L306.25,95.62500000000003L306.875,93.75000000000003L307.5,93.75000000000003L308.125,95.62500000000003L308.75,97.50000000000003L309.375,99.37499999999997L310,103.12499999999997L310.625,108.74999999999999L311.25,114.375L311.875,120L312.5,127.5L313.125,135L313.75,144.37500000000003L314.375,153.75L315,163.125L315.625,174.375L316.25,185.62500000000003L316.875,196.87499999999997L317.5,208.125L318.125,219.375L318.75,232.50000000000003L319.375,243.74999999999997L320,256.875L320.625,268.125L321.25,279.375L321.875,292.50000000000006L322.5,303.75L323.12499999999994,315L323.74999999999994,324.375L324.37499999999994,335.625L325.00000000000006,345L325.62500000000006,352.5L326.25000000000006,361.875L326.875,369.375L327.5,375L328.125,380.625L328.75,386.25L329.375,390L330,393.75L330.625,395.625L331.25,397.5L331.875,397.5L332.5,397.5L333.125,395.625L333.75,393.75L334.375,391.875L335,388.125L335.625,384.375L336.25,378.75L336.875,373.125L337.5,367.5L338.125,360L338.75,352.5L339.375,345L340,337.5L340.625,328.125L341.25,320.625L341.875,311.25L342.5,303.75L343.12499999999994,294.375L343.74999999999994,286.875L344.37499999999994,277.5L345.00000000000006,270L345.62500000000006,262.5L346.25000000000006,255L346.875,247.49999999999997L347.5,239.99999999999997L348.125,234.37500000000003L348.75,228.75L349.375,225L350,219.375L350.625,217.5L351.25,213.75L351.875,211.875L352.5,210L353.125,210L353.75,211.875L354.375,211.875L355,213.75L355.625,217.5L356.25,221.25L356.875,225L357.5,230.62500000000003L358.125,236.25000000000003L358.75,241.87499999999997L359.375,249.375L360,256.875L360.625,264.375L361.25,271.875L361.875,281.25L362.49999999999994,290.625L363.12499999999994,298.125L363.74999999999994,307.5L364.37500000000006,316.875L365.00000000000006,326.24999999999994L365.62500000000006,335.625L366.25,345L366.875,354.375L367.5,361.875L368.125,369.375L368.75,376.875L369.375,384.375L370,391.875L370.625,397.5L371.25,403.125L371.875,406.875L372.5,410.625L373.125,414.375L373.75,416.25L374.375,416.25L375,416.25L375.625,416.25L376.25,414.375L376.875,412.5L377.5,408.75L378.125,405L378.75,399.375L379.375,391.875L380,386.25L380.625,376.875L381.25,369.375L381.875,360L382.49999999999994,350.625L383.12499999999994,339.37500000000006L383.74999999999994,328.125L384.37500000000006,316.875L385.00000000000006,303.75L385.62500000000006,292.50000000000006L386.25,279.375L386.875,266.25L387.5,253.125L388.125,239.99999999999997L388.75,226.875L389.375,213.75L390,202.5L390.625,189.37500000000003L391.25,178.125L391.875,166.875L392.5,155.625L393.125,144.37500000000003L393.75,135L394.375,125.625L395,118.125L395.625,110.62499999999999L396.25,103.12499999999997L396.875,97.50000000000003L397.5,93.75000000000003L398.125,90.00000000000001L398.75,88.12500000000001L399.375,86.25000000000001L400,84.37500000000001L400.625,86.25000000000001L401.25,86.25000000000001L401.87499999999994,90.00000000000001L402.49999999999994,91.87500000000001L403.12499999999994,97.50000000000003L403.75000000000006,103.12499999999997L404.37500000000006,108.74999999999999L405.00000000000006,116.25L405.625,123.75L406.25,133.125L406.875,142.50000000000003L407.5,151.875L408.125,163.125L408.75,174.375L409.375,185.62500000000003L410,198.74999999999997L410.625,210L411.25,223.125L411.875,234.37500000000003L412.5,247.49999999999997L413.125,260.625L413.75,273.75L414.375,285L415,296.25000000000006L415.625,309.375L416.25,320.625L416.875,330L417.5,341.25L418.125,350.625L418.75,360L419.375,367.5L420,375L420.625,380.625L421.25,388.125L421.87499999999994,391.875L422.49999999999994,395.625L423.12499999999994,399.375L423.75000000000006,401.25L424.37500000000006,403.125L425.00000000000006,403.125L425.625,403.125L426.25,401.25L426.875,399.375L427.5,395.625L428.125,391.875L428.75,388.125L429.375,382.5L430,376.875L430.625,371.25L431.25,363.75L431.875,356.25L432.5,348.75L433.125,341.25L433.75,331.875L434.375,324.375L435,315L435.625,305.625L436.25,298.125L436.875,288.75L437.5,281.25L438.125,271.875L438.75,264.375L439.375,256.875L440,249.375L440.625,243.74999999999997L441.24999999999994,238.12500000000003L441.87499999999994,232.50000000000003L442.49999999999994,226.875L443.12500000000006,223.125L443.75000000000006,219.375L444.37500000000006,217.5L445,215.625L445.625,215.625L446.25,213.75L446.875,215.625L447.5,217.5L448.125,219.375L448.75,221.25L449.375,225L450,228.75L450.625,234.37500000000003L451.25,239.99999999999997L451.875,247.49999999999997L452.5,253.125L453.125,260.625L453.75,268.125L454.375,277.5L455,285L455.625,294.375L456.25,303.75L456.875,311.25L457.5,320.625L458.125,330L458.75,339.37500000000006L459.375,346.875L460,356.25L460.625,363.75L461.24999999999994,371.25L461.87499999999994,378.75L462.49999999999994,386.25L463.12500000000006,391.875L463.75000000000006,397.5L464.37500000000006,403.125L465,406.875L465.625,408.75L466.25,412.5L466.875,414.375L467.5,414.375L468.125,414.375L468.75,412.5L469.375,410.625L470,406.875L470.625,403.125L471.25,399.375L471.875,393.75L472.5,386.25L473.125,378.75L473.75,371.25L474.375,361.875L475,352.5L475.625,343.12500000000006L476.25,331.875L476.875,320.625L477.5,307.5L478.125,296.25000000000006L478.75,283.125L479.375,270L480,258.75L480.62499999999994,245.62499999999997L481.24999999999994,232.50000000000003L481.87499999999994,219.375L482.50000000000006,206.25L483.12500000000006,194.99999999999997L483.75000000000006,181.875L484.375,170.625L485,159.375L485.625,148.12499999999997L486.25,138.75L486.875,129.375L487.5,120L488.125,112.5L488.75,104.99999999999997L489.375,99.37499999999997L490,93.75000000000003L490.625,90.00000000000001L491.25,86.25000000000001L491.875,84.37500000000001L492.5,82.5L493.125,82.5L493.75,84.37500000000001L494.375,86.25000000000001L495,88.12500000000001L495.625,91.87500000000001L496.25,97.50000000000003L496.875,103.12499999999997L497.5,110.62499999999999L498.125,118.125L498.75,125.625L499.375,135L500,144.37500000000003L500.62499999999994,153.75L501.24999999999994,165L501.87499999999994,176.25L502.50000000000006,189.37500000000003L503.12500000000006,200.62499999999997L503.75000000000006,213.75L504.375,225L505,238.12500000000003L505.625,251.25L506.25,262.5L506.875,275.625L507.5,288.75L508.125,300L508.75,311.25L509.375,322.49999999999994L510,333.75L510.625,343.12500000000006L511.25,352.5L511.875,361.875L512.5,369.375L513.125,376.875L513.75,382.5L514.375,388.125L515,393.75L515.625,397.5L516.25,401.25L516.875,403.125L517.5,405L518.125,405L518.75,405L519.375,403.125L520,401.25L520.625,397.5L521.25,393.75L521.875,390L522.5,384.375L523.125,378.75L523.75,373.125L524.375,365.625L525,358.125L525.625,350.625L526.25,343.12500000000006L526.875,333.75L527.5,326.24999999999994L528.125,316.875L528.75,309.375L529.375,300L530,292.50000000000006L530.625,283.125L531.25,275.625L531.875,268.125L532.5,260.625L533.125,255L533.75,247.49999999999997L534.375,241.87499999999997L535,236.25000000000003L535.625,232.50000000000003L536.25,228.75L536.875,225L537.5,223.125L538.125,221.25L538.75,219.375L539.375,219.375L540,219.375L540.625,221.25L541.25,223.125L541.875,225L542.5,228.75L543.125,232.50000000000003L543.75,238.12500000000003L544.375,243.74999999999997L545,249.375L545.625,255L546.25,262.5L546.875,270L547.5,277.5L548.125,286.875L548.75,294.375L549.375,303.75L550,311.25L550.625,320.625L551.25,328.125L551.875,337.5L552.5,345L553.125,352.5L553.75,360L554.375,367.5L555,375L555.625,380.625L556.25,386.25L556.875,391.875L557.5,395.625L558.125,399.375L558.75,403.125L559.375,405L560,406.875L560.625,406.875L561.25,406.875L561.875,405L562.5,403.125L563.125,399.375L563.75,395.625L564.375,391.875L565,386.25L565.625,378.75L566.25,371.25L566.875,363.75L567.5,354.375L568.125,345L568.75,335.625L569.375,326.24999999999994L570,315L570.625,303.75L571.25,290.625L571.875,279.375L572.5,268.125L573.125,255L573.75,241.87499999999997L574.375,230.62500000000003L575,217.5L575.625,206.25L576.25,193.12499999999997L576.875,181.875L577.5,170.625L578.125,161.25L578.75,150L579.375,140.625L580,131.25L580.625,123.75L581.25,116.25L581.875,110.62499999999999L582.5,104.99999999999997L583.125,99.37499999999997L583.75,95.62500000000003L584.375,91.87500000000001L585,90.00000000000001L585.625,90.00000000000001L586.25,90.00000000000001L586.875,90.00000000000001L587.5,91.87500000000001L588.125,95.62500000000003L588.75,99.37499999999997L589.375,103.12499999999997L590,108.74999999999999L590.625,116.25L591.25,123.75L591.875,131.25L592.5,140.625L593.125,150L593.75,159.375L594.375,170.625L595,180L595.625,193.12499999999997L596.25,204.375L596.875,215.625L597.5,228.75L598.125,239.99999999999997L598.75,253.125L599.375,264.375L600,277.5L600.625,288.75L601.25,300L601.875,311.25L602.5,322.49999999999994L603.125,331.875L603.75,341.25L604.375,350.625L605,360L605.625,367.5L606.25,375L606.875,380.625L607.5,386.25L608.125,391.875L608.75,395.625L609.375,397.5L610,401.25L610.625,401.25L611.25,403.125L611.875,401.25L612.5,401.25L613.125,399.375L613.75,395.625L614.375,391.875L615,388.125L615.625,384.375L616.25,378.75L616.875,373.125L617.5,365.625L618.125,360L618.75,352.5L619.375,345L620,335.625L620.625,328.125L621.25,320.625L621.875,311.25L622.5,303.75L623.125,296.25000000000006L623.75,288.75L624.375,279.375L625,271.875L625.625,266.25L626.25,258.75L626.875,253.125L627.5,247.49999999999997L628.125,241.87499999999997L628.75,236.25000000000003L629.375,232.50000000000003L630,228.75" transform="translate(50,20)" fill="none" stroke="black" stroke-width="2px"></path></svg>                          